<svg width="128" height="129" viewBox="0 0 128 129" fill="none" xmlns="http://www.w3.org/2000/svg">
<path opacity="0.5" d="M29.3333 85.8334V43.1667C29.3333 38.9232 27.6476 34.8536 24.647 31.853C21.6464 28.8524 17.5768 27.1667 13.3333 27.1667C12.6261 27.1667 11.9478 27.4476 11.4477 27.9477C10.9476 28.4478 10.6667 29.1261 10.6667 29.8334V99.1667C10.6667 99.8739 10.9476 100.552 11.4477 101.052C11.9478 101.552 12.6261 101.833 13.3333 101.833C17.5768 101.833 21.6464 100.148 24.647 97.1471C27.6476 94.1465 29.3333 90.0768 29.3333 85.8334ZM98.6667 43.1667V85.8334C98.6667 90.0768 100.352 94.1465 103.353 97.1471C106.354 100.148 110.423 101.833 114.667 101.833C115.374 101.833 116.052 101.552 116.552 101.052C117.052 100.552 117.333 99.8739 117.333 99.1667V29.8334C117.333 29.1261 117.052 28.4478 116.552 27.9477C116.052 27.4476 115.374 27.1667 114.667 27.1667C110.423 27.1667 106.354 28.8524 103.353 31.853C100.352 34.8536 98.6667 38.9232 98.6667 43.1667Z" fill="#081956"/>
<path d="M61.3333 101.833C51.2747 101.833 46.2507 101.833 43.1253 98.708C40 95.5827 40 90.5587 40 80.5V48.5C40 38.4414 40 33.4174 43.1253 30.292C46.2507 27.1667 51.2747 27.1667 61.3333 27.1667H66.6667C76.7253 27.1667 81.7493 27.1667 84.8747 30.292C88 33.4174 88 38.4414 88 48.5V80.5C88 90.5587 88 95.5827 84.8747 98.708C81.7493 101.833 76.7253 101.833 66.6667 101.833H61.3333Z" fill="#081956"/>
</svg>
