<svg width="128" height="128" viewBox="0 0 128 128" fill="none" xmlns="http://www.w3.org/2000/svg">
<path fill-rule="evenodd" clip-rule="evenodd" d="M42.6667 26.6667H85.3333C100.416 26.6667 107.963 26.6667 112.645 31.3547C117.333 36.0374 117.333 43.584 117.333 58.6667V69.3334C117.333 84.416 117.333 91.9627 112.645 96.6454C107.963 101.333 100.416 101.333 85.3333 101.333H42.6667C27.584 101.333 20.0373 101.333 15.3547 96.6454C10.6667 91.9627 10.6667 84.416 10.6667 69.3334V58.6667C10.6667 43.584 10.6667 36.0374 15.3547 31.3547C20.0373 26.6667 27.584 26.6667 42.6667 26.6667ZM32 53.3334C33.4145 53.3334 34.771 52.7715 35.7712 51.7713C36.7714 50.7711 37.3333 49.4145 37.3333 48C37.3333 46.5855 36.7714 45.229 35.7712 44.2288C34.771 43.2286 33.4145 42.6667 32 42.6667C30.5855 42.6667 29.229 43.2286 28.2288 44.2288C27.2286 45.229 26.6667 46.5855 26.6667 48C26.6667 49.4145 27.2286 50.7711 28.2288 51.7713C29.229 52.7715 30.5855 53.3334 32 53.3334ZM32 69.3334C33.4145 69.3334 34.771 68.7715 35.7712 67.7713C36.7714 66.7711 37.3333 65.4145 37.3333 64C37.3333 62.5855 36.7714 61.229 35.7712 60.2288C34.771 59.2286 33.4145 58.6667 32 58.6667C30.5855 58.6667 29.229 59.2286 28.2288 60.2288C27.2286 61.229 26.6667 62.5855 26.6667 64C26.6667 65.4145 27.2286 66.7711 28.2288 67.7713C29.229 68.7715 30.5855 69.3334 32 69.3334ZM48 69.3334C49.4145 69.3334 50.771 68.7715 51.7712 67.7713C52.7714 66.7711 53.3333 65.4145 53.3333 64C53.3333 62.5855 52.7714 61.229 51.7712 60.2288C50.771 59.2286 49.4145 58.6667 48 58.6667C46.5855 58.6667 45.229 59.2286 44.2288 60.2288C43.2286 61.229 42.6667 62.5855 42.6667 64C42.6667 65.4145 43.2286 66.7711 44.2288 67.7713C45.229 68.7715 46.5855 69.3334 48 69.3334ZM48 53.3334C49.4145 53.3334 50.771 52.7715 51.7712 51.7713C52.7714 50.7711 53.3333 49.4145 53.3333 48C53.3333 46.5855 52.7714 45.229 51.7712 44.2288C50.771 43.2286 49.4145 42.6667 48 42.6667C46.5855 42.6667 45.229 43.2286 44.2288 44.2288C43.2286 45.229 42.6667 46.5855 42.6667 48C42.6667 49.4145 43.2286 50.7711 44.2288 51.7713C45.229 52.7715 46.5855 53.3334 48 53.3334ZM64 53.3334C65.4145 53.3334 66.771 52.7715 67.7712 51.7713C68.7714 50.7711 69.3333 49.4145 69.3333 48C69.3333 46.5855 68.7714 45.229 67.7712 44.2288C66.771 43.2286 65.4145 42.6667 64 42.6667C62.5855 42.6667 61.229 43.2286 60.2288 44.2288C59.2286 45.229 58.6667 46.5855 58.6667 48C58.6667 49.4145 59.2286 50.7711 60.2288 51.7713C61.229 52.7715 62.5855 53.3334 64 53.3334ZM64 69.3334C65.4145 69.3334 66.771 68.7715 67.7712 67.7713C68.7714 66.7711 69.3333 65.4145 69.3333 64C69.3333 62.5855 68.7714 61.229 67.7712 60.2288C66.771 59.2286 65.4145 58.6667 64 58.6667C62.5855 58.6667 61.229 59.2286 60.2288 60.2288C59.2286 61.229 58.6667 62.5855 58.6667 64C58.6667 65.4145 59.2286 66.7711 60.2288 67.7713C61.229 68.7715 62.5855 69.3334 64 69.3334ZM80 53.3334C81.4145 53.3334 82.771 52.7715 83.7712 51.7713C84.7714 50.7711 85.3333 49.4145 85.3333 48C85.3333 46.5855 84.7714 45.229 83.7712 44.2288C82.771 43.2286 81.4145 42.6667 80 42.6667C78.5855 42.6667 77.229 43.2286 76.2288 44.2288C75.2286 45.229 74.6667 46.5855 74.6667 48C74.6667 49.4145 75.2286 50.7711 76.2288 51.7713C77.229 52.7715 78.5855 53.3334 80 53.3334ZM80 69.3334C81.4145 69.3334 82.771 68.7715 83.7712 67.7713C84.7714 66.7711 85.3333 65.4145 85.3333 64C85.3333 62.5855 84.7714 61.229 83.7712 60.2288C82.771 59.2286 81.4145 58.6667 80 58.6667C78.5855 58.6667 77.229 59.2286 76.2288 60.2288C75.2286 61.229 74.6667 62.5855 74.6667 64C74.6667 65.4145 75.2286 66.7711 76.2288 67.7713C77.229 68.7715 78.5855 69.3334 80 69.3334ZM96 53.3334C97.4145 53.3334 98.771 52.7715 99.7712 51.7713C100.771 50.7711 101.333 49.4145 101.333 48C101.333 46.5855 100.771 45.229 99.7712 44.2288C98.771 43.2286 97.4145 42.6667 96 42.6667C94.5855 42.6667 93.229 43.2286 92.2288 44.2288C91.2286 45.229 90.6667 46.5855 90.6667 48C90.6667 49.4145 91.2286 50.7711 92.2288 51.7713C93.229 52.7715 94.5855 53.3334 96 53.3334ZM96 69.3334C97.4145 69.3334 98.771 68.7715 99.7712 67.7713C100.771 66.7711 101.333 65.4145 101.333 64C101.333 62.5855 100.771 61.229 99.7712 60.2288C98.771 59.2286 97.4145 58.6667 96 58.6667C94.5855 58.6667 93.229 59.2286 92.2288 60.2288C91.2286 61.229 90.6667 62.5855 90.6667 64C90.6667 65.4145 91.2286 66.7711 92.2288 67.7713C93.229 68.7715 94.5855 69.3334 96 69.3334ZM94.6667 85.3334C94.6667 86.3942 94.2452 87.4116 93.4951 88.1618C92.7449 88.9119 91.7275 89.3334 90.6667 89.3334H37.3333C36.2725 89.3334 35.255 88.9119 34.5049 88.1618C33.7548 87.4116 33.3333 86.3942 33.3333 85.3334C33.3333 84.2725 33.7548 83.2551 34.5049 82.5049C35.255 81.7548 36.2725 81.3334 37.3333 81.3334H90.6667C91.7275 81.3334 92.7449 81.7548 93.4951 82.5049C94.2452 83.2551 94.6667 84.2725 94.6667 85.3334Z" fill="#081956"/>
</svg>
