<svg width="699" height="176" viewBox="0 0 699 176" fill="none" xmlns="http://www.w3.org/2000/svg">
<path d="M0.386719 164L9.69141 146.234C10.0117 145.602 10.6016 145.18 11.4609 144.969C11.7109 144.906 12.0195 144.875 12.3867 144.875C12.7539 144.875 13.1523 144.98 13.582 145.191C14.0195 145.395 14.3633 145.719 14.6133 146.164L24.5977 164H15.0938L14.3555 162.148H9.29297L8.66016 164H0.386719ZM9.86719 158.434H13.6523L11.8594 153.371L9.86719 158.434ZM34.2539 153.395C33.6289 153.395 33.3164 153.898 33.3164 154.906V164H26.3555V149.434H30.1992L31.875 151.707C32.5 150.84 33.3633 150.152 34.4648 149.645C35.5742 149.137 36.6094 148.883 37.5703 148.883C39.3359 148.883 40.7344 149.352 41.7656 150.289C42.8047 151.227 43.3242 152.484 43.3242 154.062V164H36.3164V156.969C36.3164 154.586 35.6289 153.395 34.2539 153.395ZM51.3633 170V165.852C51.7617 165.898 52.1953 165.965 52.6641 166.051C53.1406 166.137 53.6016 166.18 54.0469 166.18C54.4922 166.18 54.9023 166.129 55.2773 166.027C55.6602 165.926 56 165.727 56.2969 165.43C56.9375 164.789 57.2617 163.711 57.2695 162.195C55.9023 163.688 54.2461 164.434 52.3008 164.434C50.3633 164.441 48.7461 163.828 47.4492 162.594C46.1602 161.359 45.5156 159.598 45.5156 157.309C45.5156 155.668 45.875 154.211 46.5938 152.938C47.3125 151.656 48.2773 150.66 49.4883 149.949C50.707 149.238 52 148.883 53.3672 148.883C54.7422 148.883 55.9297 149.332 56.9297 150.23C57.2578 150.52 57.5391 150.852 57.7734 151.227L59.4609 149.434H63.293V164C63.3008 167.008 61.9453 168.984 59.2266 169.93C58.1328 170.312 56.8789 170.504 55.4648 170.504C54.0586 170.504 52.6914 170.336 51.3633 170ZM56.9883 153.852C56.707 153.688 56.4102 153.605 56.0977 153.605C55.793 153.605 55.4961 153.668 55.207 153.793C54.6133 154.051 54.082 154.469 53.6133 155.047C52.8242 155.961 52.4297 156.93 52.4297 157.953C52.4297 158.641 52.6328 159.125 53.0391 159.406C53.3828 159.633 53.9141 159.629 54.6328 159.395C55.3203 159.168 56.1055 158.711 56.9883 158.023V153.852ZM75.5391 153.605C75.5391 152.918 75.2188 152.574 74.5781 152.574C73.8438 152.645 73.3672 153.023 73.1484 153.711C73.0391 154.039 72.9609 154.422 72.9141 154.859C72.875 155.289 72.8125 155.75 72.7266 156.242L75.293 155.668L75.5156 153.875L75.5391 153.605ZM73.957 158.938C73.957 158.938 73.7422 158.938 73.3125 158.938C73.1094 158.938 72.9141 158.93 72.7266 158.914C72.7266 159.844 73.2227 160.352 74.2148 160.438C74.4883 160.461 74.7539 160.473 75.0117 160.473C75.6758 160.473 76.5078 160.32 77.5078 160.016C78.5156 159.711 79.418 159.215 80.2148 158.527L80.9414 162.172C79.1992 163.68 76.5664 164.434 73.043 164.434C71.0195 164.434 69.2812 163.844 67.8281 162.664C66.25 161.375 65.4609 159.59 65.4609 157.309C65.4609 155.59 65.9062 154.047 66.7969 152.68C67.625 151.43 68.7461 150.48 70.1602 149.832C71.5742 149.184 73.1016 148.859 74.7422 148.859C76.8672 148.859 78.4727 149.324 79.5586 150.254C80.6523 151.184 81.1953 152.332 81.1875 153.699C81.1875 155.066 80.5352 156.281 79.2305 157.344C77.9258 158.406 76.168 158.938 73.957 158.938ZM90.3281 164H83.6836V144.277H90.3281V164ZM102.703 153.605C102.703 152.918 102.383 152.574 101.742 152.574C101.008 152.645 100.531 153.023 100.312 153.711C100.203 154.039 100.125 154.422 100.078 154.859C100.039 155.289 99.9766 155.75 99.8906 156.242L102.457 155.668L102.68 153.875L102.703 153.605ZM101.121 158.938C101.121 158.938 100.906 158.938 100.477 158.938C100.273 158.938 100.078 158.93 99.8906 158.914C99.8906 159.844 100.387 160.352 101.379 160.438C101.652 160.461 101.918 160.473 102.176 160.473C102.84 160.473 103.672 160.32 104.672 160.016C105.68 159.711 106.582 159.215 107.379 158.527L108.105 162.172C106.363 163.68 103.73 164.434 100.207 164.434C98.1836 164.434 96.4453 163.844 94.9922 162.664C93.4141 161.375 92.625 159.59 92.625 157.309C92.625 155.59 93.0703 154.047 93.9609 152.68C94.7891 151.43 95.9102 150.48 97.3242 149.832C98.7383 149.184 100.266 148.859 101.906 148.859C104.031 148.859 105.637 149.324 106.723 150.254C107.816 151.184 108.359 152.332 108.352 153.699C108.352 155.066 107.699 156.281 106.395 157.344C105.09 158.406 103.332 158.938 101.121 158.938ZM121.594 153.805C119.859 153.398 118.598 153.195 117.809 153.195C117.582 153.195 117.406 153.246 117.281 153.348C117.164 153.449 117.105 153.562 117.105 153.688C117.105 153.945 117.426 154.207 118.066 154.473C118.715 154.73 119.309 154.984 119.848 155.234C120.387 155.484 120.852 155.789 121.242 156.148C122.086 156.93 122.508 158.094 122.508 159.641C122.508 161.18 121.949 162.363 120.832 163.191C119.715 164.02 118.203 164.434 116.297 164.434C114.391 164.434 112.867 164.258 111.727 163.906C111.227 163.758 110.844 163.582 110.578 163.379V159.031C110.688 159.039 110.879 159.09 111.152 159.184C111.426 159.277 111.879 159.426 112.512 159.629C113.145 159.824 113.719 159.922 114.234 159.922C114.758 159.922 115.02 159.73 115.02 159.348C115.02 159.051 114.785 158.762 114.316 158.48C114.105 158.355 113.867 158.227 113.602 158.094C112.5 157.555 111.711 156.934 111.234 156.23C110.766 155.52 110.531 154.688 110.531 153.734C110.531 152.039 111.219 150.773 112.594 149.938C113.75 149.234 115.262 148.883 117.129 148.883C118.434 148.883 119.742 149.012 121.055 149.27C121.336 149.324 121.516 149.363 121.594 149.387V153.805ZM130.934 145.285H138.223V158.363H144.516V164H130.934V145.285ZM153.223 156.219C153.223 158.781 153.844 160.062 155.086 160.062C155.711 160.062 156.074 159.758 156.176 159.148C156.207 158.961 156.223 158.754 156.223 158.527V149.434H163.184V164H159.34L157.664 161.715C156.672 163.066 155.238 163.945 153.363 164.352C151.066 164.844 149.215 164.453 147.809 163.18C146.746 162.219 146.215 160.949 146.215 159.371V149.434H153.223V156.219ZM173.895 153.395C173.27 153.395 172.957 153.898 172.957 154.906V164H165.996V149.434H169.84L171.516 151.707C172.141 150.84 173.004 150.152 174.105 149.645C175.215 149.137 176.25 148.883 177.211 148.883C178.977 148.883 180.375 149.352 181.406 150.289C182.445 151.227 182.965 152.484 182.965 154.062V164H175.957V156.969C175.957 154.586 175.27 153.395 173.895 153.395ZM187.324 162.711C186.699 162.125 186.199 161.391 185.824 160.508C185.457 159.617 185.273 158.66 185.273 157.637C185.273 156.613 185.375 155.727 185.578 154.977C185.984 153.484 186.695 152.23 187.711 151.215C188.195 150.715 188.734 150.293 189.328 149.949C190.547 149.238 191.832 148.883 193.184 148.883C194.543 148.883 195.734 149.332 196.758 150.23C197.086 150.52 197.371 150.852 197.613 151.227L199.289 149.434H203.133V164H199.289L197.613 161.574C196.332 163.465 194.391 164.414 191.789 164.422C191.07 164.43 190.301 164.289 189.48 164C188.668 163.719 187.949 163.289 187.324 162.711ZM196.816 153.852C196.535 153.688 196.199 153.605 195.809 153.605C195.418 153.605 195.004 153.746 194.566 154.027C194.137 154.301 193.75 154.648 193.406 155.07C192.641 156.016 192.258 156.977 192.258 157.953C192.258 158.641 192.469 159.125 192.891 159.406C193.281 159.664 193.875 159.629 194.672 159.301C195.477 158.965 196.191 158.531 196.816 158V153.852Z" fill="#0C0E17"/>
<circle cx="102.5" cy="59.5" r="54.5" fill="#6C80CA" stroke="#0D132C" stroke-width="10"/>
<circle cx="64.5" cy="59.5" r="59.5" fill="#D9D9D9"/>
</svg>
