<svg width="128" height="128" viewBox="0 0 128 128" fill="none" xmlns="http://www.w3.org/2000/svg">
<path d="M96 42.6667C96 51.1536 92.6286 59.2929 86.6274 65.2941C80.6263 71.2953 72.4869 74.6667 64 74.6667C55.5131 74.6667 47.3737 71.2953 41.3726 65.2941C35.3714 59.2929 32 51.1536 32 42.6667C32 34.1798 35.3714 26.0404 41.3726 20.0393C47.3737 14.0381 55.5131 10.6667 64 10.6667C72.4869 10.6667 80.6263 14.0381 86.6274 20.0393C92.6286 26.0404 96 34.1798 96 42.6667Z" fill="#081956"/>
<path opacity="0.7" d="M72.4267 73.5466C64.8275 75.62 56.7307 74.8187 49.6853 71.296C42.64 67.7733 37.1408 61.7766 34.24 54.4533C27.9898 56.1606 22.405 59.725 18.2244 64.6751C14.0439 69.6252 11.4644 75.7277 10.8272 82.1756C10.1901 88.6234 11.5252 95.1127 14.6561 100.785C17.787 106.458 22.5661 111.046 28.3613 113.944C34.1565 116.842 40.6948 117.912 47.1114 117.013C53.528 116.114 59.5206 113.289 64.2965 108.91C69.0725 104.532 72.4069 98.8067 73.8586 92.4922C75.3103 86.1777 74.811 79.5712 72.4267 73.5466Z" fill="#081956"/>
<path opacity="0.4" d="M72.4267 73.5466C73.872 77.1946 74.6667 81.1733 74.6667 85.3333C74.6716 89.8363 73.7238 94.2894 71.8854 98.4C70.047 102.511 67.3597 106.186 64 109.184C67.5986 112.399 71.8777 114.758 76.517 116.086C81.1563 117.413 86.0358 117.674 90.7902 116.849C95.5447 116.024 100.051 114.134 103.972 111.322C107.893 108.509 111.127 104.846 113.432 100.606C115.737 96.3671 117.054 91.6614 117.283 86.8414C117.513 82.0213 116.649 77.2118 114.757 72.7728C112.865 68.3337 109.993 64.38 106.357 61.2076C102.721 58.0352 98.4146 55.7261 93.76 54.4533C91.9258 59.0707 89.044 63.1989 85.3418 66.5123C81.6397 69.8257 77.2184 72.2338 72.4267 73.5466Z" fill="#081956"/>
</svg>
